<?xml version="1.0" encoding="UTF-8"?>
<svg  viewBox="0 0 2394 1073" version="1.1" xmlns="http://www.w3.org/2000/svg" xmlns:xlink="http://www.w3.org/1999/xlink" style="background: #FFFFFF;">
    <!-- Generator: Sketch 50 (54983) - http://www.bohemiancoding.com/sketch -->
    <title>3</title>
    <desc>Created with Sketch.</desc>
    <defs></defs>
    <g id="Page-1" stroke="none" stroke-width="1" fill="none" fill-rule="evenodd">
        <g class="" id="3" transform="translate(-151.000000, -627.000000)">
            <rect class="" id="Rectangle" stroke="#979797" fill="#F0EEEE" x="92.5" y="1425.5" width="2531" height="499"></rect>
            <g class="" id="Group" transform="translate(917.000000, 925.000000)">
                <path d="M742.652958,564.268605 C731.446052,563.716924 722.900706,551.119117 728.732937,540.81241 C731.020718,536.76891 734.82939,534.432377 738.805618,533.809301 C747.808521,530.018925 760.549206,532.692958 761.116318,545.530909 C761.554541,555.39627 752.493639,564.755383 742.652958,564.268605 Z M769.023663,504.687013 C766.99366,505.465857 764.879879,505.621626 762.727432,505.543742 C762.559876,505.816337 762.385876,506.088933 762.21832,506.361528 C760.214095,509.671617 755.425865,507.776429 755.37431,504.80384 C753.53764,504.609129 751.700971,504.492302 749.890079,504.674032 C740.223398,505.641097 730.440717,509.853347 723.938263,517.27184 C717.010475,525.17711 714.452027,536.041988 715.663584,546.368166 C716.59803,554.33185 721.998482,561.023421 722.172483,568.850806 C722.204705,570.259217 720.870703,571.498877 719.452923,571.115945 C709.799131,568.493836 706.344904,555.785692 705.436236,546.770569 C704.579123,538.248714 706.145125,529.40234 709.857131,521.639858 C709.831353,521.639858 709.818464,521.620387 709.792686,521.613897 C701.582452,529.05186 695.891999,538.897751 696.001555,550.684262 C696.065999,557.49266 698.340892,563.703943 702.091564,568.649605 C712.666913,590.307968 743.078291,594.7344 763.816545,585.329855 C789.729694,573.569305 801.722823,542.136445 785.869466,517.161503 C781.242348,509.872818 774.894561,504.855763 767.837884,502 C768.392107,502.681489 768.875441,503.421391 769.23633,504.271629 C769.307219,504.440379 769.171886,504.6286 769.023663,504.687013 Z" class="" id="Fill-2" fill="#403D33"></path>
                <path d="M67.3604892,536.943425 C66.7211434,540.214165 65.2818058,543.115 63.3631207,545.561566 C61.7560115,549.572116 58.4970971,552.823388 53.8215169,553.82927 C51.4487474,554.341946 49.0306342,554.173217 46.8094421,553.491813 C41.7762947,553.212762 36.8947246,550.694811 33.5639081,545.146234 C25.7460115,532.128169 37.9479933,517.909534 52.0395106,522.277011 C56.0543688,523.523007 58.5638171,525.976062 59.8334399,528.928814 C60.7377222,529.752988 61.5752846,530.674506 62.2567352,531.764753 C62.5223195,531.751774 62.7807785,531.719326 63.0476583,531.712837 C65.8900587,531.609004 67.8916579,534.237277 67.3604892,536.943425 Z M81.1060991,505.585852 C81.547876,505.261374 81.944957,504.923917 82.3776652,504.592949 C75.8170838,499.537579 67.7329551,496.850899 58.8093207,498.090406 C52.1528698,495.144144 44.8816883,494.397844 37.7912338,495.455643 C37.1933451,497.279211 34.7979037,498.298072 33.1188924,496.766535 C33.0262617,496.682171 32.9524163,496.571848 32.8610812,496.487484 C14.1645903,501.562323 -1.87735266,519.142551 0.17801116,542.096139 C4.12031944,586.101871 61.4703464,599.042062 88.6001123,567.801301 C95.8032783,563.544147 100.412786,555.406234 98.5446271,546.333824 C100.447766,533.250863 96.2606016,519.772039 88.3209249,510.329724 C87.3240119,510.965701 86.3096092,511.56923 85.2757735,512.133822 C80.8903928,514.541451 77.0718079,508.551583 81.1060991,505.585852 Z" class="" id="Fill-3" fill="#403D33"></path>
                <path d="M744.993215,496.382397 C733.880224,497.662441 723.27029,503.162128 715.926961,511.4599 C714.522321,513.048698 713.300611,514.766144 712.157299,516.547914 C712.359828,516.785912 712.575424,517.02391 712.77142,517.261908 C714.515788,519.391026 711.843705,521.462253 709.713878,520.896204 C705.950749,528.589332 704.363178,537.356668 705.232095,545.802385 C706.153278,554.736963 709.655079,567.331567 719.441829,569.930249 C720.879135,570.309759 722.231509,569.081174 722.198843,567.685348 C722.022447,559.927895 716.547616,553.29611 715.600301,545.403578 C714.372057,535.169659 716.965742,524.401852 723.988943,516.567211 C730.580953,509.214999 740.498366,505.040383 750.298182,504.081958 C752.134014,503.901852 753.995979,504.017634 755.857944,504.210606 C755.851411,503.638124 756.001675,503.027048 756.413267,502.403107 C757.621911,500.563445 758.804422,498.704487 760,496.845529 C754.923695,495.694133 749.102605,495.906401 744.993215,496.382397" class="" id="Fill-4" fill="#403D33"></path>
                <path d="M763,504.983159 C765.307972,505.056172 767.574484,504.910146 769.751165,504.180013 C769.910097,504.125253 770.055209,503.948804 769.979198,503.790608 C769.592233,502.993546 769.073976,502.29992 768.479707,501.661053 C767.906169,501.04044 767.24971,500.486755 766.51724,500 C765.342523,501.654969 764.160896,503.316022 763,504.983159" class="" id="Fill-5" fill="#403D33"></path>
                <path d="M738.859872,533.580687 C734.916742,534.202573 731.139773,536.534646 728.871036,540.570426 C723.087352,550.857457 731.561567,563.431213 742.675185,563.981842 C752.433952,564.46769 761.419431,555.126445 760.984856,545.279917 C760.422465,532.466475 747.787833,529.797548 738.859872,533.580687" class="" id="Fill-6" fill="#FFFFFF"></path>
                <path d="M62.6413659,532.348816 C62.3769012,532.355374 62.1207812,532.388163 61.8576004,532.401278 C61.1823167,531.299564 60.3523341,530.368353 59.4562353,529.535509 C58.1981023,526.551698 55.7113639,524.072841 51.7328393,522.813738 C37.7688468,518.400322 25.6772901,532.768517 33.4244366,545.923514 C36.72511,551.530454 41.5625029,554.07489 46.5501016,554.356877 C48.7511924,555.045448 51.1474223,555.215952 53.4987188,554.697884 C58.1319861,553.681421 61.3614081,550.39595 62.9539734,546.343215 C64.8552948,543.870914 66.2816068,540.939567 66.9151666,537.634423 C67.4415284,534.89981 65.4580432,532.243891 62.6413659,532.348816" class="" id="Fill-7" fill="#FFFFFF"></path>
                <path d="M771.489202,478 C767.235014,484.354683 763.154597,490.83879 759.080617,497.297012 C757.902831,499.167178 756.737917,501.037345 755.547259,502.888098 C755.141792,503.5158 754.993764,504.130561 755.0002,504.706495 C755.051688,507.670288 759.833627,509.559868 761.83522,506.259574 C762.002555,505.987785 762.176327,505.715996 762.343663,505.444207 C763.424909,503.671108 764.525463,501.904481 765.619581,500.144324 C770.163388,492.831908 774.758684,485.519493 779,478.019413 L771.489202,478" class="" id="Fill-8" fill="#403D33"></path>
                <path d="M712.44024,517.238293 C712.24544,516.9982 712.031159,516.758107 711.829866,516.518014 C700.356128,502.430393 686.785041,489.718441 673.512647,477.038934 L660,477 C675.739864,491.807899 691.219994,507.757863 708.544234,520.495771 C708.790981,520.677463 709.057208,520.794265 709.336422,520.878622 C709.362395,520.885111 709.375382,520.904578 709.401355,520.904578 C711.518185,521.47561 714.173963,519.386152 712.44024,517.238293" class="" id="Fill-9" fill="#403D33"></path>
                <path d="M82.0009028,504.888005 C81.5650041,505.219528 81.1649953,505.557551 80.719961,505.882574 C76.6559235,508.85328 80.5026642,514.853196 84.92038,512.441529 C85.9618385,511.87599 86.9837208,511.271448 87.9879844,510.634404 C100.38108,502.781859 109.90886,489.878463 115,476.026002 L106.45234,476 C101.012089,487.622807 92.8187599,496.762441 82.0009028,504.888005" class="" id="Fill-10" fill="#403D33"></path>
                <path d="M36.8518176,495.941556 C37.0160376,495.428569 37.0646719,494.85714 36.8897145,494.246751 C35.4369997,489.207791 32.0963871,484.636363 29.4454983,480.168831 C28.6313463,478.798701 27.8254054,477.409091 27.0200961,476.025974 L18,476 C19.7205197,478.766233 21.4947267,481.499999 23.2171412,484.253246 C25.9065585,488.545453 28.4115443,493.44805 32.0445947,496.974023 C32.1336524,497.058439 32.2056565,497.168828 32.2959775,497.253244 C33.933124,498.785711 36.2688368,497.766231 36.8518176,495.941556" class="" id="Fill-11" fill="#403D33"></path>
                <path d="M772.142637,477.790541 L779.694383,477.810177 L852.5587,478 L862,449.166596 L526.317456,447 C526.057319,447.144003 525.795888,447.294552 525.539633,447.412373 C524.976002,447.667652 524.397488,447.86402 523.814444,448.034206 C520.389951,450.456081 516.482715,451.804476 512.468059,451.909206 L507,462.434544 C511.505163,460.353041 516.881333,459.371199 521.285548,461.85853 C524.896408,463.90076 527.264175,467.808488 526.13756,472.02386 C525.549987,474.223184 524.406548,475.885769 522.904611,477.13598 L660.626582,477.495988 L674.092892,477.535262 L772.142637,477.790541" class="" id="Fill-12" fill="#40B3B8"></path>
                <path d="M296.175636,445.864222 L6.28424081,444 L4,476.090783 L18.0155785,476.13003 L27.2619625,476.156194 L106.166684,476.358969 L114.64777,476.385134 L349,477 C327.5069,471.780178 309.783315,464.584936 296.703964,458.207334 C296.528502,454.092963 296.351746,449.978593 296.175636,445.864222" class="" id="Fill-13" fill="#40B3B8"></path>
                <path d="M490.542169,474.25872 C490.310607,474.149583 490.072577,474.078964 489.842956,473.963407 C489.367542,473.719452 489.03443,473.404879 488.800927,473.064627 L487.062919,472.486839 L499,447.866681 C498.791724,447.699765 498.601558,447.513589 498.399103,447.340253 L496.219964,447.327413 C494.758148,448.052857 492.967101,448.277552 491.096495,447.763963 C490.593915,447.622726 490.154077,447.44297 489.67931,447.288894 L444.214266,447 C422.593629,452.578857 397.342386,453.150225 374.155795,449.843997 L368,456.713246 L445.968444,469.27049 C444.956169,471.799914 443.943894,474.335759 442.93162,476.865183 L494.867461,477 C493.694128,476.56345 492.62558,476.120479 491.752371,475.690349 C491.08938,475.362936 490.711636,474.836508 490.542169,474.25872" class="" id="Fill-14" fill="#40B3B8"></path>
                <path d="M419.717486,434.517071 C425.929449,433.077557 431.590372,430.977176 437,428.497287 C435.473495,428.300989 433.922442,428.130865 432.354593,428 C430.527051,428.405681 428.681421,428.791733 426.800261,429.145068 C413.032648,431.703476 400.527971,432.187676 389.846313,431.710019 C389.584036,431.781995 389.321759,431.853971 389.060128,431.925946 L385,436.525847 C396.524691,437.383012 407.840723,437.27832 419.717486,434.517071" class="" id="Fill-15" fill="#2E2E2E"></path>
                <path d="M444.931295,441.096709 C444.913235,441.116146 444.910655,441.135584 444.893239,441.155021 C444.251453,441.1615 443.609021,441.180937 442.967234,441.193896 C443.047216,440.967126 443.082046,440.733877 443.055601,440.494149 C444.035374,440.144276 445.017082,439.820319 445.995564,439.425091 C445.889782,439.936943 445.553731,440.48767 444.931295,441.096709 Z M449.230298,442.450848 C453.171965,438.913239 449.907561,434.682363 445.512451,432 C426.029871,441.91308 401.271096,445.748729 380.749403,442.36014 L374,449.94721 C397.121736,453.283966 422.302348,452.707323 443.862511,447.076952 C445.50084,446.649329 447.166906,446.260581 448.76073,445.768167 C450.569988,445.21744 450.522257,443.163553 449.230298,442.450848 Z" class="" id="Fill-16" fill="#000000"></path>
                <path d="M506.724266,430.690729 C504.896655,430.329082 503.068396,430.025556 501.255712,429.825359 C500.861764,428.708128 500.583339,427.623187 500.469762,426.628658 C499.801931,420.784183 501.578919,415.101159 503.670677,409.741033 C507.364189,400.27363 512.134409,391.167875 516.50354,381.99754 C525.332665,363.469587 534.409062,345.032047 543,326.394309 L539.419415,307.737197 C539.021572,307.737197 538.627623,307.788861 538.250549,307.918021 C538.484192,307.278681 538.712644,306.63934 538.945638,306 C533.862596,309.493769 528.780852,312.987537 523.699108,316.487764 C523.023489,317.676033 522.348519,318.864301 521.67355,320.059028 C522.723647,321.479784 523.686128,323.023242 524.542171,324.708776 C525.271009,326.13599 523.202616,327.44696 522.174585,326.219944 C522.04024,326.058494 521.904597,325.903502 521.769603,325.742053 C523.525174,332.639178 524.960133,342.33261 523.49467,353.724492 C521.29323,370.844604 513.713449,382.811245 509.699974,388.313447 C502.320088,394.726223 491.490067,403.147433 477.402019,410.851806 C473.099087,424.949582 473.171776,440.810387 489.572244,446.241551 C490.048617,446.396542 490.489944,446.577366 490.994224,446.719442 C492.871159,447.23608 494.668266,447.010051 496.135028,446.280299 C496.584791,446.054269 497.009244,445.789492 497.388265,445.479509 C497.68616,445.76366 498.00742,446.021979 498.321541,446.293215 C498.524681,446.46758 498.715489,446.654862 498.92447,446.822769 L506.724266,430.690729" class="" id="Fill-17" fill="#000000"></path>
                <path d="M512,452 C516.001291,451.898646 519.89552,450.593711 523.308613,448.249897 C523.889716,448.085196 524.466304,447.895157 525.028059,447.648107 C525.28346,447.534083 525.544021,447.388387 525.803293,447.249025 C529.106099,445.526005 532.55402,441.984944 531.92519,438.158826 C531.571756,436.011385 529.643345,434.877486 527.565305,435.010513 C526.389555,435.080194 525.210581,435.137206 524.03612,435.22589 C523.516288,435.270233 522.969367,435.301906 522.457919,435.428599 C521.989683,435.333579 521.509193,435.22589 521.033862,435.124536 L512,452" class="" id="Fill-18" fill="#2E2E2E"></path>
                <path d="M603.74833,51 C604.98441,48.9856173 607.824053,47.7031687 610.476615,49.4041334 C610.98441,49.7288119 611.492205,50.0522392 612,50.3769176 C611.365256,49.8839569 610.730512,49.3841147 610.095768,48.8723865 C607.777283,46.9893765 604.18931,48.410705 603,50.7040984 C603.046771,50.7191125 603.093541,50.7297474 603.140312,50.7478894 C603.334076,50.8273386 603.541203,50.9124181 603.74833,51" class="" id="Fill-19" fill="#FF9A66"></path>
                <path d="M628,61 C627.33121,60.6747919 626.66242,60.3418549 626,60 C626.375796,60.2372176 626.745223,60.4750297 627.121019,60.7128419 C627.414013,60.8091558 627.707006,60.9048751 628,61" class="" id="Fill-20" fill="#FF9A66"></path>
                <path d="M138.134913,274.217657 C138.863995,269.963733 143.88389,269.148558 146.649081,270.973086 C146.765838,270.909188 146.882595,270.845909 147,270.78201 C143.329944,267.20926 136.305723,269.189503 137.055561,275.106037 C137.093183,275.404438 137.141832,275.702219 137.182048,276 C137.404535,275.715867 137.667886,275.45655 137.961075,275.22701 C138.018805,274.890146 138.077184,274.553902 138.134913,274.217657" class="" id="Fill-21" fill="#FF9A66"></path>
                <path d="M179,345 C179.999196,348.118247 180.927021,351.236493 181.8362,354.348284 C182.269571,354.45158 182.683009,354.664628 182.999357,355.084268 C183.304131,355.48454 183.592831,355.897723 183.895676,356.304451 C184.055136,356.362555 184.208809,356.452939 184.334191,356.614339 C185.271661,357.776419 186.38788,358.75773 187.279055,360.003738 C187.733001,360.629969 188.147082,361.301393 188.518084,361.992185 C189.183572,362.547401 189.818196,363.12844 190.511976,363.664288 C190.580775,363.722392 190.650217,363.767584 190.720302,363.819232 C190.813535,363.877336 190.906124,363.941896 191,364 C186.580132,358.279986 182.648931,351.811077 179,345" class="" id="Fill-22"></path>
                <path d="M310,268 C305.498363,272.573394 300.898977,277.70161 296.355263,283.431963 C286.911795,295.345084 280.026634,306.934126 275,317 C278.036048,312.223085 281.104463,307.880435 283.35075,304.393352 C290.971942,292.564492 299.739582,279.303205 310,268" class="" id="Fill-23" fill="#FF9A66"></path>
                <path d="M651.998208,60.6489363 L651.829835,60.6987597 C651.39595,60.4082309 650.949114,60.1228785 650.521706,59.8258792 C651.013873,60.1034668 651.50604,60.3745839 651.998208,60.6489363 Z M684.150974,89.7348156 C684.558955,89.8454624 684.979888,89.9593445 685.40082,90.0745207 C685.303682,88.939582 685.206543,87.8033491 685.18064,86.6489986 C684.837418,86.0621175 684.533051,85.4603541 684.26754,84.8372378 C683.607,83.7068284 683.05655,82.4942427 682.713328,81.1561279 C681.444055,76.1485504 683.211971,71.2050315 686.592383,67.5912156 C687.175212,66.0460424 687.978222,64.576575 688.994936,63.259166 C689.370537,62.5512851 689.804421,61.873816 690.316016,61.242935 C690.503817,60.9459356 690.646286,60.6437598 690.866467,60.3512898 C694.92037,54.9548307 701.571104,54.8370663 706.389162,57.7462365 C709.400448,58.2826472 712.172127,59.4486447 713.700435,61.5049933 C715.559014,63.9961644 715.714435,67.7290388 714.956757,71.4547956 C715.351786,72.3690878 715.669104,73.3112034 715.915188,74.2682014 C717.236268,76.8719606 717.90976,79.8691307 717.540635,83.1542413 C715.507207,101.371497 693.392061,106.244486 679.643759,97.7421515 C674.819225,94.763099 679.533669,88.4866418 684.150974,89.7348156 Z M778.38157,38.4412776 C779.009731,36.6968107 781.729602,36.846928 782.040445,38.7292182 C782.066348,38.8715708 782.092252,39.0139234 782.111679,39.1562761 C782.182914,39.5678046 782.04692,40.0414507 781.703699,40.3022148 C781.600084,40.3798617 781.49647,40.4575086 781.399332,40.5351555 C779.929306,41.644212 777.727506,40.2730972 778.38157,38.4412776 Z M785.958355,44.6252056 C786.003686,44.5449705 786.049017,44.4653824 786.094348,44.3857944 C786.683654,43.3492083 788.587564,43.2191498 789.261056,44.2486182 C789.280483,44.2783828 789.299911,44.3075004 789.319339,44.336618 C790.459094,44.5274999 790.57566,46.3780842 789.403525,46.6129661 C789.390574,46.6356131 789.377622,46.6582601 789.36467,46.6809071 C788.78184,47.749846 786.871454,47.8139047 786.197962,46.8180833 C786.146155,46.7410835 786.094348,46.6634366 786.042541,46.5864367 C785.602181,45.936144 785.569802,45.3059101 785.958355,44.6252056 Z M792.919931,29.5675317 C794.674895,30.5083533 794.318722,32.7025251 792.770985,33.5061704 C792.745082,33.5255822 792.712702,33.5449939 792.686799,33.5644056 C791.670085,34.2832864 790.219487,33.8976402 789.953975,32.588643 C789.934548,32.5517607 789.91512,32.5135843 789.895693,32.476702 C788.801268,30.6241766 791.203821,28.6500043 792.919931,29.5675317 Z M657.949546,61.8634631 C659.063398,60.6301716 660.98026,61.8880513 660.093063,63.3685187 C656.252864,69.8196815 648.6437,68.5695665 642.083629,67.3841572 C644.33076,68.4589196 646.545513,69.5731526 648.72141,70.7462677 C649.220053,70.6103857 649.751076,70.6802679 650.18496,71.0976199 C650.489327,71.3952663 650.800169,71.6922657 651.104536,71.9899121 C653.455282,72.0604414 655.799552,72.1135001 658.150298,72.1924411 C662.515044,72.3386761 662.871218,77.6943706 660.416858,80.1518948 C658.804362,81.7682443 657.172439,83.1205944 655.514613,84.2464743 C656.136298,85.244884 656.045636,86.6819985 654.698652,87.1905857 C649.608606,89.1116993 644.641603,89.7852861 639.901255,89.4533456 C640.879114,90.1411677 641.442516,91.6183998 640.645982,92.7721032 C630.485319,107.427954 618.822251,121.113219 606,133.801369 C623.115763,150.355687 643.042059,161.284487 665.681752,169 C666.491237,166.331535 667.32015,163.652717 668.12316,160.990723 C667.261867,160.148254 667.857649,158.796551 668.887315,158.445199 C670.02707,154.687736 671.153874,150.941921 672.274202,147.197399 C662.832362,148.475985 653.215674,147.056988 645.379854,142.22088 C643.767358,141.227 645.224432,139.166122 646.778645,139.508416 C656.22696,141.584823 664.632658,143.547348 673.731276,142.356763 C673.796035,142.138704 673.860794,141.918705 673.925553,141.699999 C683.522813,136.760363 693.113598,131.820726 702.710859,126.88109 C703.526821,126.121444 704.342782,125.348858 705.158744,124.562683 C705.722146,124.025625 706.389162,124.301919 706.70648,124.8228 C720.655535,117.641756 734.604591,110.46136 748.54717,103.280963 C758.953916,97.3584464 785.550374,80.3130121 796.915551,47.4670819 C798.094162,44.0616186 803.443243,28.5814162 802.970503,16.5209124 C802.633757,16.899441 802.277584,17.2475579 801.901982,17.5594396 C799.674278,22.0726653 794.843268,25.2425998 788.943737,23.6243091 C788.108348,23.3952508 787.402477,22.9766046 786.826123,22.4337234 C783.54285,23.2593687 780.259576,24.085014 776.969827,24.9106593 C772.909447,25.9317159 768.531749,21.1609614 770.396804,17.2171462 C772.909447,11.9041575 775.868927,6.24175781 780.958972,3 C760.404514,9.09657527 731.314841,31.7377624 721.160654,39.8680393 L660.462189,58.1047064 C653.856787,53.302893 646.914638,48.9054906 639.946587,44.5915586 C640.030773,45.5854389 639.75231,46.6045543 639.182432,47.3480234 C640.820831,48.8161967 642.387995,50.3490758 643.838593,51.9906605 C644.589796,52.8350705 643.540703,54.0696561 642.562844,53.6937157 C640.30276,52.8234235 638.107435,51.7790728 635.963918,50.6260164 C634.636361,52.0191311 632.227332,52.4934242 630.627789,50.5748988 C628.652644,48.2131392 626.632168,45.8934382 624.618168,43.5659726 C623.821634,43.0276208 623.0251,42.489916 622.228567,41.9522113 C622.325705,42.1437403 622.435795,42.3346223 622.565313,42.5248571 C623.556123,43.9658541 624.585789,45.3460276 625.634882,46.7100247 C629.047673,53.550069 633.943442,59.3832919 639.868876,64.0602231 C647.717648,65.681102 654.57561,65.6028081 657.949546,61.8634631 Z" class="" id="Fill-24" stroke="#000000" stroke-width="9"></path>
                <path d="M638,89.8399624 C636.459504,89.6545568 634.952066,89.3726903 633.471074,89 C631.203306,92.8935171 628.723967,96.9054181 626,101 C629.821488,97.4334482 633.636364,93.8380833 637.444628,90.2176636 C637.62314,90.0479173 637.808264,89.9314125 638,89.8399624" class="" id="Fill-25" fill="#FF9A66"></path>
                <path d="M515,482 L514.239762,480 C512.864532,480.136546 511.442539,480.168675 510,480.104418 L515,482" class="" id="Fill-26" fill="#FF9A66"></path>
                <path d="M387.22147,301.480515 C388.124889,302.062612 388.89176,302.702918 389.592621,303.362628 C390.345255,301.583999 391.224082,299.863579 392.357239,298.298385 C394.265679,295.653077 396.968818,293.434641 400.020769,292.08935 C401.283356,290.459479 403.425417,290.161963 405.334504,290.802269 C405.759034,290.776398 406.182269,290.737592 406.610034,290.756995 C420.507544,291.293818 422.849574,307.624872 417.181849,317.429972 C410.96793,328.179363 397.500127,340.720318 384.213525,339.814834 C376.331258,339.284479 370.415028,334.368994 368.391395,328.050008 C364.955038,324.822603 362.710727,320.366328 362.73726,315.101584 C362.796798,303.382032 377.036003,294.92869 387.22147,301.480515 Z M265.941992,375.497379 C267.348245,374.992895 268.744791,374.436669 270.124511,373.841636 C270.275297,374.417265 270.435143,374.992895 270.600165,375.574992 C269.033419,375.581459 267.478969,375.568524 265.941992,375.497379 Z M368.063291,456.628761 L374.222202,449.708275 L380.993962,442.134546 C376.452275,441.390756 372.115734,440.297707 368.091118,438.835997 C366.188502,438.143948 366.748933,435.052367 368.841811,435.285205 C374.539304,435.938448 380.103486,436.552883 385.621072,436.953883 L389.688399,432.407059 L389.898723,432.167753 C390.088984,432.180688 390.284423,432.187156 390.475979,432.193624 C401.176576,432.665769 413.703426,432.187156 427.495451,429.658268 C429.379947,429.30901 431.22885,428.927413 433.059633,428.526413 C437.202676,427.614461 441.214349,426.573154 445.080413,425.40896 C452.362773,421.573588 459.407629,417.220796 466.985736,412.990891 C467.961636,412.447601 469.151742,413.818763 468.416581,414.68544 C467.559757,415.707344 466.655044,416.696909 465.714737,417.660603 C469.92832,415.759086 473.916048,413.747617 477.668861,411.690875 C491.716509,403.974856 502.515473,395.540918 509.874197,389.118448 C513.876162,383.60793 521.434207,371.6232 523.629335,354.47721 C525.090595,343.06811 523.659751,333.360026 521.909214,326.452475 C501.740837,302.722322 476.873516,313.717487 451.308568,319.732489 C449.624041,320.127021 448.938711,317.682214 450.399325,316.931956 C454.979194,314.577697 460.367998,312.404535 466.137325,310.690582 C463.637391,310.321921 461.131633,309.940324 458.575397,309.95326 C453.451276,309.972663 448.718034,311.363228 443.690338,311.841841 C442.173423,311.990599 441.347661,309.95326 442.838044,309.222404 C450.579879,305.406435 465.005462,304.843742 472.769948,308.71792 C472.878022,308.769662 472.958268,308.847275 473.044986,308.918421 C490.505048,305.121855 509.825661,306.221371 520.705518,319.344424 C521.748074,318.620037 522.79063,317.902117 523.833186,317.184198 C528.900358,313.67868 533.967529,310.179631 539.035995,306.680581 C539.076765,306.648242 539.118182,306.622371 539.1596,306.590033 L539.508413,308.420404 L547.09105,348.100014 L487.186471,472.520008 L488.925359,473.102105 C487.704837,471.304072 489.553093,468.619959 492.078265,469.932911 C493.245074,470.540879 494.454594,470.974217 495.67641,471.336411 C497.71881,468.522942 500.381825,466.362716 503.378122,464.913941 C503.523731,464.571151 503.746997,464.260699 504.091927,464.053731 C504.9604,463.536312 505.889058,463.051231 506.855897,462.611424 L578.05192,327.254475 C582.717859,325.230071 587.862688,322.688248 593.27932,319.531989 C590.690726,320.605634 588.04389,321.394699 585.364696,321.815102 C583.824483,322.060877 583.248521,320.04294 584.549289,319.305618 C590.496582,315.922987 596.81275,313.659277 602.520598,309.759227 C607.652484,306.25371 612.38961,302.049676 616.731975,297.612804 C617.54091,296.784933 618.899922,298.065546 618.220416,298.983966 C616.104241,301.836241 613.619192,304.714387 610.849397,307.430839 C617.27558,302.256644 622.536895,297.114787 626.736888,292.529157 C627.727025,289.553995 628.717162,286.559429 629.707299,283.571331 C629.331953,283.765364 628.956607,283.959396 628.581261,284.153428 C625.753223,285.615138 622.737511,287.717155 619.508241,287.84651 C618.181587,287.898252 617.385595,286.04201 618.188059,285.06538 C620.226576,282.581766 623.798835,281.443443 626.646287,280.085217 C628.290044,279.30262 629.933801,278.512262 631.609915,277.831855 C632.444736,275.319137 633.273086,272.799303 634.101436,270.27753 C633.169542,270.942414 632.218234,271.550382 631.221626,272.046458 C630.166774,272.570345 628.79482,271.156496 629.661998,270.196683 C631.376941,268.286758 633.531945,266.720271 635.73225,265.283138 C640.637634,250.314838 645.510661,235.215889 650.338387,219.953306 C654.305406,207.429167 658.188296,194.976819 662,182.588502 C657.502319,182.408699 652.389847,180.608725 649.387079,179.731052 C632.257063,174.728899 616.719032,164.375334 605.36805,150.617796 C602.287624,148.647721 599.000111,146.439633 596.178544,144 C577.864247,160.633744 557.543789,175.389256 536.087587,188.19733 C536.452579,211.943652 525.264031,238.057816 513.262666,257.384729 C508.00588,265.850359 501.46774,275.12187 491.247974,277.772999 C482.046172,280.16283 473.186064,276.643731 468.49165,268.397357 C465.92506,263.889339 465.87523,257.497914 462.490644,253.557765 C457.802054,248.098989 450.231066,251.176341 443.71493,251.665949 C435.705175,252.26745 427.765312,250.503049 423.396414,243.129821 C422.122179,240.978649 421.389607,238.7628 421.090625,236.573469 C384.063386,247.670177 345.57877,260.170386 321.799305,292.283383 C315.388006,300.943692 310.370018,310.787599 308.136062,321.381763 C305.973293,331.646073 306.82494,343.0099 300.983779,352.2135 C294.15054,362.988761 276.350078,368.667441 267.857551,356.51455 C267.702235,356.294646 267.5741,356.061807 267.43108,355.835436 C267.465379,356.65684 267.509385,357.484711 267.568923,358.325518 C260.681323,362.406664 253.266945,365.226601 243.775867,365.756956 C238.154737,366.067408 232.534254,365.582327 227.023139,364.456939 C205.179294,352.549822 187.202808,332.422203 172,310.587099 C184.085495,335.972994 193.735124,363.402697 217.822631,376.538685 C222.59988,377.92925 227.479378,378.938218 232.410001,379.481509 C235.410181,380.71038 238.464721,381.77109 241.571033,382.657171 C254.059054,383.452704 266.958662,382.269107 280.197375,380.147687 C283.429881,379.636735 283.745042,384.455204 281.192689,384.972624 C279.211121,386.026866 277.173251,386.951753 275.092022,387.773157 C281.654753,402.125081 290.657233,411.309278 295.255869,415.526247 C295.693342,425.654734 296.132755,435.776754 296.571522,445.898773 C296.747546,449.966985 296.924218,454.035196 297.099595,458.103407 C310.172638,464.409457 327.887676,471.523976 349.370412,476.685236 C354.615549,477.946446 360.021826,479.123575 365.714143,480.106672 C396.265368,485.384351 423.054073,484.511206 440.984611,482.085802 C441.667353,480.365382 442.350094,478.644962 443.032836,476.93101 C444.045623,474.382719 445.05841,471.82796 446.071197,469.279669 L368.063291,456.628761 Z" class="" id="Fill-27" stroke="#000000" stroke-width="9"></path>
                <path d="M461,208.887147 C444.447873,206.473836 426.045794,209.250838 409,214 C412.525171,213.709531 415.958753,213.506203 419.211108,213.344025 C433.404027,212.636613 447.308542,211.94917 461,208.887147" class="" id="Fill-28" fill="#E2794B"></path>
                <path d="M300.438706,351.845074 C306.28712,342.629749 305.434415,331.251446 307.59987,320.97406 C309.8366,310.366399 314.860819,300.509952 321.280078,291.83861 C345.089069,259.684703 383.621469,247.16857 420.694683,236.057725 C420.994036,238.249845 421.727518,240.468517 423.003335,242.622429 C427.377658,250.005051 435.327379,251.771699 443.347079,251.169432 C449.871306,250.6792 457.451695,247.597927 462.146106,253.063658 C465.534895,257.008827 465.584787,263.408394 468.154564,267.922154 C472.854807,276.179034 481.725915,279.702616 490.939143,277.30974 C501.171598,274.655235 507.717856,265.371912 512.981169,256.895497 C524.997436,237.543963 536.199876,211.396531 535.834431,187.619957 C557.317274,174.795567 577.662963,160.021258 596,143.366323 C593.071258,140.831623 590.654397,138.043712 589.488084,135 C575.634873,146.911277 561.166108,158.12509 545.561484,168.285261 C533.637226,176.04867 521.276897,183.147643 508.582224,189.599666 C490.963117,205.272841 466.903369,213.935764 443.772784,216.558538 C427.754766,218.375051 411.455537,217.485899 395.576181,220.552925 C380.042183,223.553248 368.504753,230.494855 357.306201,241.362203 C355.941614,242.685894 354.254996,240.70489 355.032538,239.278879 C356.196907,237.143747 357.543351,235.195124 359.034288,233.403866 C356.032975,234.132415 352.907256,235.3363 349.975274,236.683305 C350.55519,237.471432 350.518905,238.721944 349.397948,239.200519 C347.095128,240.184221 344.915418,241.231388 343.075234,242.974075 C341.369177,244.589185 340.481483,246.897874 338.725533,248.393826 C337.710841,249.259665 336.425304,248.361446 336.383835,247.196416 C336.339775,245.976341 336.797229,244.774399 337.484706,243.661177 C333.495266,246.287188 329.024398,249.67089 325.185284,253.575908 C323.32955,256.550975 321.771225,259.570078 321.01053,263.153888 C320.09303,267.475959 320.678779,271.619293 320.789578,275.970507 C320.826512,277.427603 318.713541,277.623178 318.141399,276.463329 C315.832747,271.776012 315.872272,265.831707 317.508998,260.377633 C314.969675,262.737482 312.513289,265.24045 310.137898,267.852214 C299.867861,279.145682 291.092001,292.395544 283.463664,304.214214 C281.215271,307.698293 278.143979,312.037203 275.105085,316.810002 C267.295321,329.075515 259.720764,344.261697 266.844347,355.471625 C266.987544,355.698284 267.115839,355.93142 267.271347,356.151603 C275.774419,368.319976 293.596983,362.634063 300.438706,351.845074" class="" id="Fill-29" fill="#000000"></path>
                <path d="M601.696997,129.108383 C603.244457,130.792532 604.817495,132.419149 606.416112,134 C619.077152,121.179936 630.593583,107.35239 640.626498,92.5441668 C641.413017,91.3784687 640.856699,89.8858783 639.891134,89.1909051 C639.264477,89.1464478 638.644214,89.0804155 638.030345,89 C637.844906,89.0954526 637.665861,89.2170565 637.49321,89.3942322 C633.809999,93.1731077 630.120392,96.9258318 626.424392,100.648482 C618.060432,109.064652 609.626133,117.310838 601,125.30401 C602.304471,126.025788 602.585827,127.970144 601.696997,129.108383" class="" id="Fill-30" fill="#000000"></path>
                <path d="M190.248434,363.704424 C190.178019,363.652813 190.108249,363.607654 190.039126,363.549592 C189.342076,363.014131 188.70446,362.433511 188.035835,361.878697 C187.663085,361.188405 187.247052,360.517466 186.790966,359.891687 C185.89559,358.64658 184.774109,357.665978 183.83222,356.504738 C183.706247,356.343455 183.55185,356.253136 183.391638,356.195074 C183.087366,355.78864 182.797305,355.375755 182.491095,354.975773 C182.173256,354.556436 181.757868,354.343542 181.322455,354.240321 C180.40899,351.13078 179.476792,348.014787 178.472886,344.898794 C182.139017,351.704948 186.088748,358.169182 190.52945,363.885061 C190.541725,363.904415 190.553999,363.917318 190.566273,363.936672 C190.460327,363.852804 190.354381,363.78184 190.248434,363.704424 Z M279.309903,379.677919 C266.094388,381.793956 253.217385,382.974549 240.751248,382.181035 C236.2692,381.897177 231.83948,381.368168 227.467902,380.523043 C223.708744,379.323096 220.251276,377.819936 217.044461,376.078076 C192.999163,362.975423 183.366444,335.615329 171.302127,310.293854 C166.539064,300.300743 161.397436,290.623746 154.838453,282.269273 C154.380429,279.656484 153.948245,277.039179 153.567097,274.42639 C153.149125,271.56587 149.538551,269.045335 146.735495,270.645265 C146.672832,270.681392 146.609523,270.717519 146.546213,270.753002 C146.429285,270.819451 146.313002,270.885254 146.19672,270.951703 C143.442761,269.054366 138.443256,269.902071 137.717136,274.325749 C137.659641,274.675411 137.601499,275.025073 137.544004,275.37538 C137.252006,275.61408 136.989724,275.883745 136.768141,276.179216 C136.11502,277.048211 135.809456,278.148808 136.125357,279.411333 C143.140426,307.500428 152.881029,337.453958 172.637439,359.149784 C172.931375,359.749758 173.207223,360.349731 173.503744,360.943254 C174.189811,362.33029 175.428866,363.123804 176.779036,363.420565 C180.142833,366.69139 183.759867,369.742869 187.686341,372.516942 C210.787813,388.84526 246.526615,398.212593 274.210912,387.284038 C276.288494,386.464719 278.325377,385.542179 280.303473,384.490612 C282.851353,383.974506 282.536744,379.168264 279.309903,379.677919 Z" class="" id="Fill-31" fill="#000000"></path>
                <path d="M600.642903,53 C599.006643,54.2672513 598.371071,56.7500962 599.770682,58.7098238 C602.353539,62.3219478 605.477308,66.223748 609,70 C605.396171,64.9551889 602.569904,59.359143 600.717279,53.6643588 C600.642903,53.4400723 600.622619,53.2170936 600.642903,53" class="" id="Fill-32" fill="#E2794B"></path>
                <path d="M604,50.4720115 C608.672892,52.534184 617.589134,56.6896364 627,60 C626.616016,59.7407703 626.23854,59.4815406 625.854556,59.2229589 C621.246746,56.09276 616.638936,52.9625611 612.037634,49.8265295 C611.543011,49.4901789 611.048387,49.1551245 610.553763,48.8187739 C607.970006,47.0566599 605.204018,48.3852122 604,50.4720115" class="" id="Fill-33" fill="#E2794B"></path>
                <path d="M658.184409,72.7360105 C655.815357,72.6556945 653.452831,72.6017117 651.083779,72.5299539 C650.777042,72.2271231 650.463779,71.9249506 650.157042,71.6221198 C649.719779,71.1974984 649.184622,71.1263989 648.682095,71.2646478 C646.489254,70.0710994 644.257254,68.9374589 641.992623,67.8439763 C641.790308,67.8077683 641.587992,67.7709019 641.385676,67.7340355 C629.253258,65.518104 617.407997,61.7004608 606,57 C614.112209,76.9229756 631.419994,88.2021066 653.4202,83.9934167 C654.346936,83.8163265 655.103989,84.3041475 655.528199,85 C657.198936,83.8545095 658.843567,82.4786043 660.468619,80.8341014 C662.942092,78.3337722 662.583145,72.8847926 658.184409,72.7360105" class="" id="Fill-34" fill="#2E2E2E"></path>
                <path d="M630.612349,49.8755193 C632.202531,51.755689 634.597461,51.2908781 635.917247,49.9256148 C638.04822,51.0556191 640.230696,52.0790909 642.477552,52.9319841 C643.449688,53.3004087 644.492641,52.0905051 643.745835,51.2629768 C642.303727,49.6542109 640.745735,48.1519774 639.116925,46.7131561 C639.683467,45.9845507 639.960301,44.9858095 639.876607,44.0117991 C639.799351,43.1842708 639.471014,42.3738637 638.795026,41.7651072 C634.732658,38.1005199 630.670291,34.4352986 626.607923,30.7700772 C624.380381,28.7662537 621.232207,31.0332375 621.084134,33.4555811 C617.987464,32.2069961 615.373643,36.9305661 618.225669,38.769518 C619.571208,39.6363619 620.916746,40.5279365 622.262285,41.4252182 C623.054157,41.952173 623.846029,42.4791279 624.637901,43.0067168 C626.640113,45.2876513 628.648764,47.5609763 630.612349,49.8755193" class="" id="Fill-35" fill="#000000"></path>
                <path d="M690.121938,70.1095414 C690.12841,69.8990075 690.19313,69.6865301 690.283738,69.4805307 C690.568505,68.8398595 691.176873,68.2872888 691.759352,68.2840498 C693.526207,68.2730373 695.144205,69.1592234 696.74926,69.823863 C697.215244,70.0156109 697.674755,70.2209625 698.134267,70.4321443 C698.153683,70.0596611 698.211931,69.91002 698.296067,69.5472537 C698.088963,68.4978228 698.205459,66.6742745 698.820298,66.6742745 L698.800882,66.6742745 C698.800882,66.6742745 698.800882,66.2415462 698.800882,66.2402506 C698.800882,64.5780038 701.726224,64.0118293 703.609574,64.5663435 C704.968693,64.9660341 705.887716,66.7241549 705.622364,68.1797545 C705.615892,68.1667986 705.279349,68.1680942 705.279349,68.155786 C705.279349,68.1693898 705.279349,68.1842891 705.279349,68.197245 C705.279349,68.0877674 705.570588,68.0242833 705.551172,68.0042016 C705.525284,68.0210443 705.725916,68.3384647 705.822996,69.0134691 C705.777692,69.2874872 705.816524,69.5615053 705.77122,69.8355234 C705.64178,70.5817854 705.590004,71.332582 705.311709,72.0419196 C705.305237,72.0652403 705.311709,72.0846742 705.298765,72.1073471 C705.292293,72.1300199 705.298765,72.1559318 705.292293,72.1786047 C704.806893,73.4431042 703.816678,74.3059697 702.774687,74.5773966 C702.535223,75.5147587 701.58384,76.5609507 700.483601,76.1236878 C698.60025,75.3754824 696.723372,74.627277 694.840022,73.8784237 C694.005134,73.5473995 693.228495,73.1386397 692.49716,72.6534398 C691.765824,72.1688878 691.086265,71.6078956 690.432594,70.9724069 C690.206074,70.748917 690.108994,70.4697165 690.108994,70.1762645 C690.108994,70.1542394 690.121938,70.1315665 690.121938,70.1095414 Z M680.025627,97.9408392 C693.765671,106.45289 715.867531,101.574332 717.899738,83.3362583 C718.268641,80.0473935 717.595554,77.0467983 716.275267,74.4400637 C716.029331,73.4819721 715.712204,72.5387798 715.317412,71.6234428 C716.074635,67.8934283 715.919307,64.156288 714.061845,61.66227 C712.534454,59.6035715 709.764441,58.4362415 706.754963,57.8992179 C701.9398,54.9867231 695.293061,55.1046221 691.241593,60.5072481 C691.021545,60.8000523 690.879161,61.1025735 690.691473,61.3999123 C690.180186,62.0315142 689.746562,62.7097576 689.371187,63.4184474 C688.355083,64.7373618 687.552556,66.2085086 686.970077,67.7554475 C683.591696,71.3733932 681.824841,76.3225614 683.093352,81.3358615 C683.436368,82.6755055 683.986487,83.8894769 684.646631,85.021178 C684.911982,85.6450065 685.216166,86.2474576 685.559182,86.8350093 C685.58507,87.990679 685.68215,89.1282103 685.77923,90.2644461 C685.35855,90.1491382 684.93787,90.035126 684.530135,89.9243527 C679.915603,88.6747525 675.203991,94.9583823 680.025627,97.9408392 Z" class="" id="Fill-36" fill="#000000"></path>
                <path d="M383.359708,338.954019 C396.574057,339.852671 409.968623,327.406348 416.14875,316.738072 C421.785654,307.00696 419.45636,290.79914 405.634424,290.266368 C405.208986,290.247111 404.788052,290.285625 404.365831,290.3113 C402.467126,289.675825 400.336713,289.971097 399.080993,291.588669 C396.045638,292.923808 393.357199,295.125504 391.459137,297.75085 C390.332142,299.304234 389.458094,301.011671 388.709553,302.77688 C388.012503,302.122148 387.249802,301.486673 386.351296,300.908968 C376.221217,294.406583 362.059445,302.796136 362.000231,314.427254 C361.973843,319.65227 364.205948,324.074919 367.623619,327.277969 C369.636247,333.549273 375.520305,338.427666 383.359708,338.954019" class="" id="Fill-37" fill="#000000"></path>
                <path d="M770.440974,17.1568943 C768.583748,21.1055799 772.943071,25.8822262 776.986407,24.8599085 C780.262347,24.0332436 783.531839,23.2065786 786.801331,22.3799137 C787.375266,22.9234653 788.078174,23.3426285 788.910057,23.5719697 C794.784824,25.1922589 799.595556,22.0184097 801.813909,17.4996104 C802.187934,17.1873435 802.542612,16.8387967 802.877945,16.4598006 C802.987573,16.3399472 803.097201,16.2291637 803.20038,16.0995924 C804.432082,14.5084567 804.116096,12.7035284 803.097201,11.337199 C803.039162,10.244265 802.826355,9.15845742 802.452331,8.10957768 C802.162139,8.57927367 801.652692,8.95697403 801.091654,9.10922032 C801.21418,9.23555234 801.323808,9.38196792 801.381846,9.58021202 C802.033165,11.6999986 799.982478,13.3824821 798.615353,14.7695429 C796.674294,16.7260697 794.352761,18.4739866 791.689447,19.2604845 C787.704149,20.4356962 782.693508,19.1872767 780.442911,15.4685801 C779.856079,14.5104003 779.546542,13.5127012 779.449811,12.5175936 C779.127376,12.0161526 779.037094,11.3955061 779.320837,10.7936473 C778.727556,7.12548359 781.764895,3.11201232 785.111771,1 C784.131569,1.30125329 783.177161,1.68543222 782.274342,2.15448036 C781.816485,2.39030014 781.384422,2.65073847 780.958807,2.92219036 C775.890128,6.16795162 772.943071,11.8373442 770.440974,17.1568943" class="" id="Fill-38" fill="#000000"></path>
                <path d="M796,10.3837209 C796.065421,10.5780731 796.107477,10.7873754 796.140187,11 C796.420561,10.4742525 796.700935,9.96428571 797,9.53239203 C796.78972,9.35631229 796.570093,9.17774086 796.35514,9 C796.336449,9.15448505 796.313084,9.30980066 796.271028,9.46594684 C796.191589,9.78156146 796.093458,10.0822259 796,10.3837209" class="" id="Fill-39" fill="#E2794B"></path>
                <path d="M791.039732,14 C790.996281,14.6563839 790.987591,15.3264781 791.018007,16 C791.35258,15.7574979 791.682807,15.4438732 792,15.0959726 C791.973929,15.0814053 791.943514,15.0736932 791.917443,15.0556984 C791.561145,14.9657241 791.248297,14.5595544 791.039732,14" class="" id="Fill-40" fill="#E2794B"></path>
                <path d="M791.132298,11.6348113 C791.999648,10.3995667 792.794718,9.091435 793.905189,8.04416243 C795.133934,6.87860816 797.341733,8.20656001 797.039475,9.72951683 C797.341733,9.86633999 797.650562,10.0038025 797.94625,10.1393469 C797.525716,10.4718144 797.131467,10.8643818 796.737217,11.269097 C796.993479,12.1143317 796.724075,13.0810448 795.73845,13.4972685 C795.547896,13.5778279 795.370484,13.673732 795.17993,13.7594063 C794.680547,14.6001655 793.570076,14.9326329 792.669872,14.6864791 C792.190202,14.9460595 791.690819,15.1800655 791.184865,15.3610045 C791.138869,14.8584671 791.15201,14.3584872 791.217719,13.868737 C790.744619,13.2504753 790.613202,12.3790269 791.132298,11.6348113 Z M779.173386,11.2230631 C778.884269,11.817029 778.976261,12.4295364 779.304802,12.9244015 C779.403365,13.9064593 779.718765,14.8910745 780.31671,15.8366888 C782.60993,19.5066183 787.715466,20.7386661 791.776239,19.578866 C794.489993,18.8026823 796.855492,17.0776876 798.833312,15.1468187 C800.226328,13.7779478 802.315852,12.1175285 801.652198,10.0255408 C801.593061,9.82989643 801.481357,9.68540095 801.356511,9.56072564 C801.928173,9.41047592 802.447269,9.03772872 802.742956,8.57419232 C803.110923,7.99684975 803.137206,7.27884786 802.466981,6.67273406 C802.072731,6.31341344 801.652198,6.00204485 801.225094,5.71433261 C799.13557,1.41655102 792.821001,-0.692699415 788.339695,0.203044709 C787.294933,0.412115607 786.171321,0.890996655 785.073992,1.5578497 C781.66373,3.64216508 778.568869,7.60300366 779.173386,11.2230631 Z" class="" id="Fill-41" fill="#403D33"></path>
                <path d="M790.298795,32.5466139 C790.536327,33.9736335 791.834059,34.3940505 792.74363,33.6103537 C792.766804,33.5891917 792.795771,33.5680298 792.818945,33.5468679 C794.203578,32.6707639 794.522218,30.2787603 792.952194,29.2531121 C791.416931,28.2528581 789.267562,30.4050265 790.246654,32.4245801 C790.264035,32.4647878 790.281415,32.5064063 790.298795,32.5466139" class="" id="Fill-42" fill="#403D33"></path>
                <path d="M786.561315,47.2900538 C787.302727,48.289269 789.405772,48.224992 790.047378,47.1524101 C790.061636,47.129686 790.075894,47.1069618 790.090152,47.0842376 C791.380495,46.8485552 791.252173,44.9916642 789.997476,44.8001317 C789.976089,44.7709149 789.954702,44.7416981 789.933315,44.711832 C789.191903,43.6788552 787.095987,43.809357 786.447251,44.8494757 C786.397349,44.929335 786.347446,45.0091943 786.297543,45.0897028 C785.869805,45.7727271 785.90545,46.4051089 786.39022,47.0576178 C786.447251,47.1348801 786.504283,47.2127916 786.561315,47.2900538" class="" id="Fill-43" fill="#403D33"></path>
                <path d="M781.244135,40.5709135 C781.344617,40.4872698 781.451797,40.4036261 781.558978,40.3199824 C781.914015,40.0390789 782.054689,39.5288522 781.981003,39.0855405 C781.960906,38.9321937 781.934111,38.7788469 781.907316,38.6255001 C781.585773,36.5978369 778.772277,36.4361258 778.122493,38.3153213 C777.445915,40.288616 779.723507,41.7656246 781.244135,40.5709135" class="" id="Fill-44" fill="#403D33"></path>
                <path d="M639.63577,88.9192671 C644.363313,89.249595 649.3169,88.5792804 654.393196,86.6674995 C655.736542,86.161383 655.826959,84.7312498 655.206953,83.7376904 C654.787158,83.0570732 654.037984,82.5799329 653.120893,82.7531457 C631.349653,86.8696885 614.221997,75.8375084 606.194215,56.3507364 C617.483485,60.948283 629.205467,64.6823408 641.211618,66.8497556 C641.411828,66.8858148 641.612038,66.921874 641.812248,66.9572893 C648.354599,68.1369399 655.94321,69.3809819 659.773037,62.9611584 C660.657836,61.487883 658.746152,60.236114 657.635309,61.4634143 C654.270487,65.1845938 647.431049,65.2625074 639.603478,63.6495026 C635.670317,62.8381708 631.485279,61.5986362 627.371283,60.1781617 C627.074197,60.0751355 626.777111,59.9714653 626.480025,59.8671512 C617.14119,56.5780381 608.293193,52.449261 603.656067,50.4003263 C603.455857,50.3101784 603.255647,50.222606 603.068353,50.1408289 C603.023145,50.1221554 602.977936,50.1112089 602.932727,50.095755 C601.679799,49.6688399 600.11041,50.732586 600.007076,52.0345803 C599.9877,52.2483598 600.007076,52.4679345 600.078118,52.688797 C601.847717,58.2966448 604.547325,63.8072615 607.989648,68.7750587 C614.305956,77.8857992 623.134578,85.1665357 633.332379,87.8677553 C634.779059,88.2508842 636.251572,88.5406456 637.756378,88.7312441 C638.376383,88.8104456 639.002847,88.8754809 639.63577,88.9192671" class="" id="Fill-45" fill="#000000"></path>
                <path d="M705.273027,124.286489 C704.459886,125.060177 703.646746,125.820493 702.833605,126.568074 C696.412375,132.464025 689.90725,137.460842 681.233749,140.197725 C678.736246,140.984786 676.322638,141.491663 673.954204,141.797955 C664.887041,142.969631 656.510401,141.038276 647.094748,138.994847 C645.545909,138.65799 644.093872,140.686136 645.700793,141.664231 C653.509525,146.423529 663.092968,147.819989 672.502167,146.56171 C686.448175,144.695943 700.013427,136.990261 706.84768,125.709057 C707.080006,125.320621 707.028378,124.879968 706.815413,124.542475 C706.499191,124.029866 705.834481,123.757961 705.273027,124.286489" class="" id="Fill-46" fill="#403D33"></path>
                <path d="M524.847711,325.03134 C523.991782,323.370639 523.02943,321.849921 521.979473,320.450096 C521.61997,319.972883 521.249435,319.508396 520.868517,319.056635 C509.95883,306.146435 490.585244,305.064752 473.077311,308.799738 C472.990356,308.729747 472.909889,308.653393 472.801519,308.60249 C465.015745,304.79115 450.55061,305.344717 442.787549,309.098792 C441.29308,309.817793 442.121105,311.822087 443.64218,311.675742 C448.68366,311.204892 453.42988,309.836881 458.56805,309.817793 C461.131294,309.805067 463.643923,310.180474 466.150711,310.543156 C460.365566,312.229309 454.961987,314.367222 450.369561,316.683296 C448.904943,317.421385 449.592152,319.826538 451.281297,319.438405 C476.916338,313.520965 501.851839,302.704139 522.075513,326.049394 C522.210489,326.208465 522.346114,326.361174 522.480441,326.520244 C523.508335,327.729184 525.576451,326.437528 524.847711,325.03134" class="" id="Fill-47" fill="#403D33"></path>
                <path d="M617.306713,297.272296 C612.911021,301.80163 608.115721,306.093272 602.920813,309.671841 C597.142869,313.653165 590.749135,315.964049 584.728806,319.41717 C583.412064,320.169858 583.995099,322.229847 585.554227,321.978951 C588.266323,321.549786 590.945664,320.744278 593.566047,319.648259 C600.084248,316.921415 606.202842,312.398685 611.351894,307.294932 C614.155703,304.521871 616.67127,301.583746 618.813433,298.672032 C619.501284,297.734473 618.125583,296.427173 617.306713,297.272296" class="" id="Fill-48" fill="#403D33"></path>
                <path d="M525.715342,471.678703 C526.849865,467.448972 524.465476,463.527933 520.829268,461.478747 C516.394137,458.982943 510.980227,459.968129 506.443438,462.056723 C505.469873,462.50334 504.534755,462.995933 503.66024,463.521365 C503.31291,463.731538 503.088091,464.046798 502.94147,464.394897 C499.924329,465.866107 497.242789,468.059787 495.186181,470.916826 C493.955865,470.549023 492.737931,470.108974 491.563005,469.491591 C489.020266,468.158306 487.159153,470.883987 488.388166,472.709864 C488.623411,473.057963 488.959011,473.37979 489.437974,473.629371 C489.66931,473.747593 489.909117,473.81984 490.142408,473.931494 C490.31314,474.522606 490.693704,475.061174 491.361646,475.396137 C492.241373,475.836187 493.317899,476.289372 494.499993,476.73599 C498.680329,478.305719 504.456557,479.763794 509.953226,479.973967 C511.279986,480.02651 512.587848,480.000238 513.852701,479.888584 C517.211306,479.593028 520.236918,478.653818 522.459697,476.808237 C523.972177,475.553767 525.123643,473.885519 525.715342,471.678703" class="" id="Fill-49" fill="#403D33"></path>
                <path d="M357.468097,241.563527 C368.656162,230.681172 380.182789,223.72998 395.70224,220.725513 C411.566726,217.654252 427.850692,218.544633 443.85371,216.725611 C466.962635,214.099216 490.999853,205.42433 508.60246,189.729511 C509.983247,188.498023 511.329725,187.228275 512.628299,185.909241 C513.640747,184.88138 512.389429,183.447563 511.210614,184.219269 C497.732242,193.037472 484.341261,201.330396 468.939627,206.359456 C466.1787,207.261509 463.408063,208.026082 460.62901,208.694029 C446.984271,211.975402 433.127202,212.71209 418.982711,213.470178 C415.741455,213.643974 412.319588,213.861867 408.806447,214.173144 C390.922891,215.757411 370.624738,219.83643 359.194566,233.594201 C357.705025,235.387932 356.359842,237.339246 355.196563,239.477326 C354.419749,240.905307 356.104788,242.889046 357.468097,241.563527" class="" id="Fill-50" fill="#403D33"></path>
                <path d="M338.350561,248.647634 C340.110957,247.120974 341.000899,244.764894 342.711276,243.11663 C344.556119,241.33817 346.741348,240.269507 349.05,239.265613 C350.173795,238.777213 350.210172,237.501031 349.628787,236.696726 C349.279956,236.214275 348.708964,235.901012 348.015849,236.028564 C345.110871,236.563226 342.405968,238.103104 340.245423,240.130059 C339.187237,241.122719 337.967302,242.399562 337.106592,243.817836 C336.417374,244.953909 335.958762,246.180525 336.002934,247.425645 C336.044508,248.61459 337.3333,249.531247 338.350561,248.647634" class="" id="Fill-51" fill="#403D33"></path>
                <path d="M317.792081,276.251331 C318.360408,277.406206 320.45929,277.21147 320.422603,275.760621 C320.312542,271.428065 319.730699,267.302497 320.642081,262.998958 C321.397705,259.430515 322.945639,256.424357 324.788999,253.462046 C325.40946,252.464507 326.064034,251.471482 326.73341,250.464271 C327.704007,249.00246 325.812374,247.209856 324.458173,248.374404 C321.158918,251.214843 318.569588,255.542886 317.163897,260.234607 C315.538083,265.665295 315.498822,271.584112 317.792081,276.251331" class="" id="Fill-52" fill="#403D33"></path>
                <path d="M692.401535,72.3869154 C693.136964,72.8775952 693.917951,73.2909716 694.757512,73.6257345 C696.651405,74.3830454 698.545298,75.1397011 700.439192,75.8963569 C701.54559,76.3385583 702.502299,75.2805505 702.743103,74.3326016 C703.771402,74.0633501 704.799702,73.0806803 705.300835,71.8346549 C705.307343,71.811726 705.326868,71.7920726 705.333376,71.7684885 C705.61323,71.0511395 705.710853,70.2918633 705.83451,69.5371728 C705.886575,69.2600599 705.932133,68.982947 705.97769,68.7058341 C705.880067,68.0232062 705.854034,67.7022007 705.886575,67.6851677 C705.899592,67.6779615 705.919116,67.7198887 705.958166,67.8384642 C705.964674,67.8509114 705.964674,67.8496012 705.964674,67.8627034 C706.231511,66.390664 704.942883,64.6126867 703.576156,64.2084818 C701.682262,63.6477049 698.740545,64.2202739 698.740545,65.9012944 C698.740545,65.9026046 698.740545,65.9039149 698.740545,65.9039149 C698.740545,66.847933 697.998608,67.7061314 698.206871,68.7654495 C698.128772,69.1323129 698.076706,69.619062 698.057182,69.619062 L698.06369,69.619062 C697.601606,69.619062 697.14603,69.4585592 696.677438,69.2646457 C695.05689,68.5931547 693.436342,67.8266722 691.659597,67.837154 C691.073857,67.8410847 690.462084,68.4647525 690.175722,69.1126595 C690.084607,69.3216406 690.019525,69.5692734 690.013016,69.7815301 C690.013016,69.8038039 690,69.8431107 690,69.8653846 C690,70.1621508 690.097623,70.4530211 690.331919,70.6783801 C690.982742,71.3210461 691.666105,71.8968907 692.401535,72.3869154" class="" id="Fill-53" fill="#403D33"></path>
                <path d="M792.671532,13.8932476 C792.709265,13.9063638 792.753287,13.9119851 792.79102,13.922603 C793.65259,14.1630671 794.715403,13.8382843 795.193354,13.0169586 C795.375731,12.9332646 795.545529,12.8395773 795.727905,12.7608799 C796.67123,12.3542768 796.929073,11.4099084 796.683808,10.5842106 C796.639786,10.4243176 796.583187,10.2669228 796.495143,10.1207706 C796.62092,9.8940472 796.752985,9.66794841 796.859895,9.43060714 C796.916495,9.31318567 796.947939,9.19638878 796.973094,9.08021648 C797.262381,7.59246147 795.149333,6.29520406 793.973321,7.43381757 C792.910508,8.45688336 792.149559,9.73477872 791.319433,10.9414717 C790.822615,11.6684855 790.948392,12.5197911 791.401188,13.1237622 C791.703052,13.5316144 792.155848,13.8276664 792.671532,13.8932476" class="" id="Fill-54" fill="#FFFFFF"></path>
                <path d="M595.946994,143.443127 C598.783601,145.879828 602.08864,148.085263 605.185487,150.05297 C616.596977,163.793978 632.217838,174.135102 649.43917,179.131244 C652.457945,180.007863 657.59767,181.805673 662.119327,181.98526 C664.389914,182.075054 666.504358,181.766913 668.117841,180.720398 C670.882883,180.257864 673.511299,179.013673 675.189842,177.183563 C680.433663,171.453567 678.071992,160.591123 670.323369,158.396025 C669.978552,158.299125 669.653253,158.322381 669.353978,158.421865 C668.319527,158.772641 667.720976,160.122129 668.586272,160.963218 C668.67085,161.042029 668.761933,161.116965 668.866029,161.185441 C673.199012,163.943203 676.282847,170.668034 671.624565,174.726189 C671.305772,175.003322 670.973967,175.190661 670.648668,175.399964 C670.583608,175.041436 670.492524,174.685491 670.355899,174.337299 C671.910828,173.463265 672.333717,170.991033 670.134695,170.277206 C668.794463,169.849556 667.460737,169.40834 666.133517,168.959372 C643.388607,161.256501 623.369704,150.345607 606.174396,133.818414 C604.547901,132.256392 602.947429,130.649151 601.372982,128.985062 C602.277313,127.860381 601.99105,125.939185 600.66383,125.226004 C600.384073,125.076133 600.058774,124.976003 599.687933,124.951455 C598.126497,124.849388 596.805783,125.075487 595.706272,125.530269 C594.932061,125.656238 594.157849,125.780916 593.383637,125.907531 C592.50533,126.050297 591.87425,126.67433 591.574974,127.432085 C590.839799,124.399128 591.204133,120.49795 594.209897,118.752466 C596.506508,117.415897 599.343116,117.77378 601.080213,119.756346 C602.700202,121.599376 605.367654,119.28283 603.968868,117.344838 C599.577331,111.252438 590.137153,114.174283 587.775481,120.565134 C586.396213,124.298352 586.955728,128.338419 588.673307,131.977967 C588.751379,133.047093 589.018124,134.08521 589.408483,135.097488 C590.579559,138.133675 593.00629,140.914693 595.946994,143.443127" class="" id="Fill-55" fill="#FFFFFF"></path>
                <path d="M618.321031,285.105199 C617.519984,286.121358 618.314571,288.052734 619.638883,287.998898 C622.862452,287.864307 625.872839,285.677209 628.695884,284.156335 C629.070568,283.954449 629.445251,283.752563 629.819934,283.550677 C632.533159,282.090368 635.233463,280.576224 637.546164,278.475936 C638.541013,277.577544 637.778726,275.739036 636.435034,276.031097 C634.813559,276.385071 633.250225,276.934874 631.719191,277.57889 C630.046036,278.286837 628.405182,279.109185 626.764327,279.923459 C623.921902,281.336661 620.35595,282.521058 618.321031,285.105199" class="" id="Fill-56" fill="#403D33"></path>
                <path d="M630.866442,271.885159 C631.880638,271.381139 632.848734,270.763434 633.797072,270.087902 C635.878149,268.601468 637.801169,266.809468 639.631989,265.135752 C640.573742,264.273594 639.546375,262.433623 638.367538,263.170268 C637.412613,263.77023 636.431346,264.380706 635.456665,265.013525 C633.217532,266.473673 631.024499,268.065248 629.279292,270.00576 C628.39681,270.980945 629.792976,272.417437 630.866442,271.885159" class="" id="Fill-57" fill="#403D33"></path>
                <path d="M446.263338,431.631949 C453.842431,427.868785 460.624613,423.20781 466.061521,417.719067 C467.004446,416.770316 467.911679,415.796096 468.770889,414.790039 C469.508097,413.9368 468.314677,412.586901 467.336059,413.121766 C459.736849,417.28608 452.672374,421.571375 445.369734,425.347274 C442.944606,426.595294 440.488977,427.786008 437.982081,428.900312 C432.547769,431.313576 426.861016,433.357528 420.620708,434.758367 C408.689753,437.445432 397.322087,437.547311 385.74481,436.713175 C380.211858,436.318393 374.632181,435.713485 368.918821,435.070373 C366.820115,434.841144 366.258124,437.884786 368.166038,438.566104 C372.201861,440.005148 376.550479,441.081247 381.104813,441.813504 C401.751823,445.143681 426.661788,441.37415 446.263338,431.631949" class="" id="Fill-58" fill="#403D33"></path>
            </g>
        </g>
    </g>
</svg>